HIERARCHY
ROOT Hips
{
	OFFSET 0.000000 0.000000 0.000000
	CHANNELS 6 Xposition Yposition Zposition Zrotation Yrotation Xrotation 
	JOINT LHipJoint
	{
		OFFSET 0.000000 0.000000 0.000000
		CHANNELS 3 Zrotation Yrotation Xrotation
		JOINT LeftUpLeg
		{
			OFFSET 1.363060 -1.794630 0.839290
			CHANNELS 3 Zrotation Yrotation Xrotation
			JOINT LeftLeg
			{
				OFFSET 2.448110 -6.726130 0.000000
				CHANNELS 3 Zrotation Yrotation Xrotation
				JOINT LeftFoot
				{
					OFFSET 2.562200 -7.039590 0.000000
					CHANNELS 3 Zrotation Yrotation Xrotation
					JOINT LeftToeBase
					{
						OFFSET 0.157640 -0.433110 2.322550
						CHANNELS 3 Zrotation Yrotation Xrotation
						End Site
						{
							OFFSET 0.000000 0.000000 0.000000
						}
					}
				}
			}
		}
	}
	JOINT RHipJoint
	{
		OFFSET 0.000000 0.000000 0.000000
		CHANNELS 3 Zrotation Yrotation Xrotation
		JOINT RightUpLeg
		{
			OFFSET -1.305520 -1.794630 0.839290
			CHANNELS 3 Zrotation Yrotation Xrotation
			JOINT RightLeg
			{
				OFFSET -2.542530 -6.985550 0.000000
				CHANNELS 3 Zrotation Yrotation Xrotation
				JOINT RightFoot
				{
					OFFSET -2.568260 -7.056230 0.000000
					CHANNELS 3 Zrotation Yrotation Xrotation
					JOINT RightToeBase
					{
						OFFSET -0.164730 -0.452590 2.363150
						CHANNELS 3 Zrotation Yrotation Xrotation
						End Site
						{
							OFFSET 0.000000 0.000000 0.000000
						}
					}
				}
			}
		}
	}
	JOINT LowerBack
	{
		OFFSET 0.000000 0.000000 0.000000
		CHANNELS 3 Zrotation Yrotation Xrotation
		JOINT Spine
		{
			OFFSET 0.028270 2.035590 -0.193380
			CHANNELS 3 Zrotation Yrotation Xrotation
			JOINT Spine1
			{
				OFFSET 0.056720 2.048850 -0.042750
				CHANNELS 3 Zrotation Yrotation Xrotation
				JOINT Neck
				{
					OFFSET 0.000000 0.000000 0.000000
					CHANNELS 3 Zrotation Yrotation Xrotation
					JOINT Neck1
					{
						OFFSET -0.054170 1.746240 0.172020
						CHANNELS 3 Zrotation Yrotation Xrotation
						JOINT Head
						{
							OFFSET 0.104070 1.761360 -0.123970
							CHANNELS 3 Zrotation Yrotation Xrotation
							End Site
							{
								OFFSET 0.000000 0.000000 0.000000
							}
						}
					}
				}
				JOINT LeftShoulder
				{
					OFFSET 0.000000 0.000000 0.000000
					CHANNELS 3 Zrotation Yrotation Xrotation
					JOINT LeftArm
					{
						OFFSET 3.362410 1.200890 -0.311210
						CHANNELS 3 Zrotation Yrotation Xrotation
						JOINT LeftForeArm
						{
							OFFSET 4.983000 -0.000000 -0.000000
							CHANNELS 3 Zrotation Yrotation Xrotation
							JOINT LeftHand
							{
								OFFSET 3.483560 -0.000000 -0.000000
								CHANNELS 3 Zrotation Yrotation Xrotation
								JOINT LeftFingerBase
								{
									OFFSET 0.000000 0.000000 0.000000
									CHANNELS 3 Zrotation Yrotation Xrotation
									JOINT LeftHandIndex1
									{
										OFFSET 0.715260 -0.000000 -0.000000
										CHANNELS 3 Zrotation Yrotation Xrotation
										End Site
										{
											OFFSET 0.000000 0.000000 0.000000
										}
									}
								}
								JOINT LThumb
								{
									OFFSET 0.000000 0.000000 0.000000
									CHANNELS 3 Zrotation Yrotation Xrotation
									End Site
									{
										OFFSET 0.000000 0.000000 0.000000
									}
								}
							}
						}
					}
				}
				JOINT RightShoulder
				{
					OFFSET 0.000000 0.000000 0.000000
					CHANNELS 3 Zrotation Yrotation Xrotation
					JOINT RightArm
					{
						OFFSET -3.136600 1.374050 -0.404650
						CHANNELS 3 Zrotation Yrotation Xrotation
						JOINT RightForeArm
						{
							OFFSET -5.241900 -0.000000 -0.000000
							CHANNELS 3 Zrotation Yrotation Xrotation
							JOINT RightHand
							{
								OFFSET -3.444170 -0.000000 -0.000000
								CHANNELS 3 Zrotation Yrotation Xrotation
								JOINT RightFingerBase
								{
									OFFSET 0.000000 0.000000 0.000000
									CHANNELS 3 Zrotation Yrotation Xrotation
									JOINT RightHandIndex1
									{
										OFFSET -0.622530 -0.000000 -0.000000
										CHANNELS 3 Zrotation Yrotation Xrotation
										End Site
										{
											OFFSET 0.000000 0.000000 0.000000
										}
									}
								}
								JOINT RThumb
								{
									OFFSET 0.000000 0.000000 0.000000
									CHANNELS 3 Zrotation Yrotation Xrotation
									End Site
									{
										OFFSET 0.000000 0.000000 0.000000
									}
								}
							}
						}
					}
				}
			}
		}
	}
}
MOTION
Frames: 4
Frame Time: 0.033333
1.241677 22.243883 -13.113045 3.983477 -0.873578 15.797329 -13.138779 4.314305 5.771767 -7.420175 0.954003 -19.661821 -0.941794 -0.146075 24.605809 1.168406 10.014735 38.593287 2.893814 0.205189 -55.569507 10.119147 -2.750595 7.834801 -1.454388 10.739618 -41.025119 -0.299618 -1.337735 25.749639 -1.581680 -9.289587 19.333523 -1.040664 -0.002194 -56.445884 0.355271 -1.063665 -10.090446 -0.710410 -1.755591 -4.269980 -6.511373 0.760526 1.690815 7.401101 -9.159853 -3.237566 -2.245517 -0.335933 1.238623 -0.068409 -0.011981 0.081497 8.809252 -0.810269 2.377663 -59.659114 -63.488440 -7.999333 -53.712346 -87.562863 53.453964 21.652186 -11.534114 -2.330591 -0.217248 0.838164 0.062583 -0.035840 -0.037880 0.045853 -0.081775 0.050537 -0.030982 4.361819 -27.689669 4.438350 47.907132 43.918442 -26.855131 -156.890983 85.246742 -155.313561 -18.518102 16.024141 -2.786852 0.212606 -0.682599 -0.075363 0.029560 0.006639 -0.049288 0.029562 -0.002961 -0.047046 
1.209512 22.734279 -12.532044 3.482449 -1.468647 15.240655 -11.141396 5.356661 4.568806 -10.061318 -0.232257 -20.938314 2.113126 -1.196047 31.699768 1.151973 7.259977 25.039751 3.048854 0.201595 -54.527725 9.794490 -3.549535 8.439754 -0.781149 11.549184 -43.062907 -1.915616 -3.619254 29.588266 -2.233216 -7.269756 5.714837 -1.433948 0.026062 -54.427950 1.828213 -3.648538 -9.510126 -1.294885 -1.359733 -4.349739 -6.687744 1.676538 1.778577 7.827202 -9.700323 -2.919603 -2.014142 -0.326988 1.273245 -0.067828 -0.022195 0.094629 10.534431 1.637669 3.000203 -56.711198 -66.300807 -15.881873 -157.280693 -86.812763 157.383270 22.668077 -12.415151 -2.630284 -0.301601 0.839587 0.071209 -0.024111 -0.031756 0.045857 -0.083836 0.067880 -0.019610 3.549742 -26.843159 5.344873 47.871261 44.829322 -29.063658 -167.155469 78.715488 -165.251310 -20.397773 17.156075 -3.312221 0.228511 -0.699464 -0.072255 0.010999 0.016338 -0.045089 0.012482 -0.003185 -0.051052 
1.176639 23.065496 -11.980100 3.274903 -0.944203 15.248196 -10.858055 5.387011 3.977173 -10.708713 -1.581187 -22.890570 3.406853 -5.481433 36.563592 1.574989 5.961286 16.384912 3.002168 0.168994 -54.020916 9.794004 -3.763603 8.484650 -0.718999 12.569652 -45.092077 -3.140350 -4.894840 32.956688 -1.938573 -7.109069 3.476017 -1.385783 0.026073 -53.059271 2.969213 -5.623441 -9.073492 -1.663684 -1.201152 -4.355521 -6.687112 1.723581 1.032762 8.245735 -9.728462 -3.194389 -2.032341 -0.330510 1.174243 -0.060748 -0.028129 0.100949 10.765489 3.790385 3.011197 -47.231748 -68.350632 -27.646447 -170.334141 -86.469489 169.949185 23.719494 -12.814225 -2.854155 -0.295412 0.888829 0.072100 -0.021531 -0.037295 0.037319 -0.082084 0.086876 -0.005843 3.584693 -26.663402 6.160609 47.393205 45.147083 -31.261198 -171.680857 74.943232 -169.658502 -21.171072 17.878935 -3.601370 0.272597 -0.733200 -0.076013 0.000470 0.025641 -0.042784 -0.003568 0.002372 -0.058041 
1.142467 23.218620 -11.434703 1.588023 -1.009848 15.059285 -10.067389 5.456924 3.602709 -9.997726 -2.142836 -23.150691 3.170032 -11.993777 37.317560 1.574726 6.340212 17.699436 3.077972 0.185605 -54.319173 10.847730 -3.419286 8.869360 0.003515 14.279697 -45.537058 -4.626423 -5.135729 34.634848 -1.646096 -6.648424 2.172687 -1.141319 -0.020054 -52.635259 4.635543 -5.314508 -8.820556 -1.158312 -0.695427 -4.481095 -6.706713 0.859797 0.932387 8.444163 -9.974683 -3.884609 -1.847661 -0.322444 1.023345 -0.059787 -0.029371 0.104966 10.566192 3.721190 3.810399 -39.998425 -69.141514 -37.286262 -132.821058 -87.945150 132.385843 24.470100 -12.870443 -2.969376 -0.371365 0.868897 0.071162 -0.014203 -0.041796 0.026086 -0.088279 0.102405 0.004741 3.627067 -25.120258 5.433433 46.987193 44.360035 -33.026655 -176.437859 73.612412 -174.635806 -21.833829 18.332887 -3.839309 0.307848 -0.737910 -0.078735 -0.007429 0.036769 -0.041820 -0.018645 0.007907 -0.056429 
